<svg width="27" height="24" viewBox="0 0 27 24" fill="none" xmlns="http://www.w3.org/2000/svg">
<path d="M20.9638 15.2616C21.4457 15.2616 21.9035 15.3596 22.3373 15.5066C23.012 14.6982 23.3734 13.8408 23.3734 12.9344C23.3734 11.4646 22.3855 10.0437 20.6023 8.94137C18.6987 7.76551 16.1445 7.1041 13.4216 7.1041C10.6987 7.1041 8.14452 7.76551 6.2409 8.94137C4.45777 10.0437 3.46982 11.4646 3.46982 12.9344C3.46982 13.8408 3.83126 14.6982 4.50596 15.5066C4.9397 15.3351 5.39753 15.2616 5.87946 15.2616C6.9397 15.2616 7.95174 15.678 8.72283 16.4619C9.25295 17.0009 9.61439 17.6623 9.78307 18.3727C10.9397 18.6422 12.1445 18.7892 13.4216 18.7892C14.6987 18.7892 15.9035 18.6422 17.0602 18.3727C17.2288 17.6623 17.5903 17.0009 18.1204 16.4619C18.8915 15.678 19.9035 15.2616 20.9638 15.2616ZM13.4457 11.8565C12.2168 11.8565 11.2048 10.8276 11.2048 9.57829H15.6626C15.6626 10.8521 14.6746 11.8565 13.4457 11.8565Z" fill="white"/>
<path d="M5.71081 7.86351C5.92768 7.74102 6.14455 7.61854 6.38551 7.49605C5.8313 7.05511 5.1566 6.85913 4.506 6.85913C3.54214 6.85913 2.60238 7.30008 1.99997 8.13297L1.71082 8.47593L3.49395 9.82327C4.04816 9.11285 4.79515 8.45143 5.71081 7.86351Z" fill="white"/>
<path d="M3.51807 16.07C2.91566 15.2861 2.55422 14.4532 2.43373 13.5713C2.40964 13.3754 2.38554 13.1549 2.38554 12.9589C2.38554 11.9301 2.72289 10.9257 3.37349 10.0193H3.13253C1.39759 10.0193 0 11.4401 0 13.2039V13.6448H2.33735C1.73494 14.1593 1.3253 14.8697 1.22892 15.6781C1.10843 16.511 1.3253 17.3684 1.85542 18.0298L2.04819 18.2993C2.21687 17.6134 2.57831 16.9764 3.08434 16.462C3.22891 16.315 3.37349 16.1925 3.51807 16.07Z" fill="white"/>
<path d="M23.3976 9.84776L25.1807 8.50043L24.9156 8.13297C24.2891 7.30008 23.3494 6.85913 22.4096 6.85913C21.759 6.85913 21.0843 7.05511 20.5301 7.49605C20.747 7.61854 20.9879 7.74102 21.2048 7.86351C22.0964 8.45143 22.8433 9.11285 23.3976 9.84776Z" fill="white"/>
<path d="M26.8915 13.2039C26.8915 11.4401 25.494 10.0193 23.759 10.0193H23.5181C24.1687 10.9257 24.506 11.9056 24.506 12.9589C24.506 13.1794 24.4819 13.3754 24.4578 13.5713C24.3373 14.4532 23.9759 15.3106 23.3735 16.07C23.5181 16.1925 23.6626 16.315 23.8072 16.4375C24.3132 16.9519 24.6747 17.5889 24.8434 18.2748L25.0361 18.0053C25.5421 17.3194 25.759 16.4865 25.6626 15.6536C25.5662 14.8452 25.1566 14.1348 24.5542 13.6203H26.8915V13.2039V13.2039Z" fill="white"/>
<path d="M9.66265 6.36922C11.3976 6.36922 12.7952 4.94839 12.7952 3.18461C12.7952 1.42082 11.3976 0 9.66265 0C7.92771 0 6.53012 1.42082 6.53012 3.18461C6.53012 4.94839 7.92771 6.36922 9.66265 6.36922ZM9.66265 1.44532C9.66265 1.44532 9.68675 1.44532 9.66265 1.44532C9.44578 1.66579 9.3253 1.98426 9.3253 2.32721C9.3253 3.01313 9.85542 3.55206 10.5301 3.55206C10.8675 3.55206 11.1807 3.40508 11.3976 3.18461C11.3976 3.18461 11.3976 3.18461 11.3976 3.2091C11.3976 4.16449 10.6265 4.94839 9.68675 4.94839C8.74699 4.94839 7.9759 4.16449 7.9759 3.2091C7.95181 2.22923 8.72289 1.44532 9.66265 1.44532Z" fill="white"/>
<path d="M17.2289 6.36922C18.9638 6.36922 20.3614 4.94839 20.3614 3.18461C20.3614 1.42082 18.9638 0 17.2289 0C15.494 0 14.0964 1.42082 14.0964 3.18461C14.0723 4.94839 15.494 6.36922 17.2289 6.36922ZM17.2289 1.44532C17.012 1.66579 16.8916 1.98426 16.8916 2.32721C16.8916 3.01313 17.4217 3.55206 18.0964 3.55206C18.4337 3.55206 18.747 3.40508 18.9638 3.18461C18.9638 3.18461 18.9638 3.18461 18.9638 3.2091C18.9638 4.16449 18.1928 4.94839 17.253 4.94839C16.3132 4.94839 15.5422 4.16449 15.5422 3.2091C15.494 2.22923 16.265 1.44532 17.2289 1.44532Z" fill="white"/>
<path d="M5.90368 16.1436C4.16874 16.1436 2.77115 17.5644 2.77115 19.3282C2.77115 21.0919 4.16874 22.5128 5.90368 22.5128C6.26512 22.5128 6.62657 22.4393 6.93982 22.3413C6.91573 22.3168 6.89163 22.2923 6.84344 22.2678C5.92777 21.3369 5.61452 20.1611 6.16874 19.6221C6.69886 19.0832 7.87958 19.4017 8.77115 20.308C8.79524 20.3325 8.81934 20.357 8.84344 20.406C8.96392 20.0876 9.01211 19.7201 9.01211 19.3527C9.0603 17.5644 7.63862 16.1436 5.90368 16.1436Z" fill="white"/>
<path d="M20.988 16.1436C19.2531 16.1436 17.8555 17.5644 17.8555 19.3282C17.8555 19.6956 17.9278 20.0631 18.0242 20.3815C18.0483 20.357 18.0724 20.308 18.0965 20.2835C19.0121 19.3527 20.1688 19.0342 20.6989 19.5976C21.229 20.1366 20.9157 21.3369 20.0242 22.2433C20.0001 22.2678 19.976 22.2923 19.9278 22.3168C20.241 22.4393 20.6025 22.4883 20.9639 22.4883C22.6989 22.4883 24.0965 21.0674 24.0965 19.3037C24.1206 17.5644 22.6989 16.1436 20.988 16.1436Z" fill="white"/>
</svg>
